<svg xmlns="http://www.w3.org/2000/svg" width="284.373" height="62.19" viewBox="0.001 5.276 284.373 62.19" enable-background="new 0.001 5.276 284.373 62.19"><path fill="#4A3390" d="M4.823 32.982V5.758h5.423l6.444 19.277c.594 1.795 1.027 3.14 1.3 4.03.31-.99.792-2.445 1.45-4.364L25.957 5.76h4.847v27.225h-3.473V10.197L19.42 32.982h-3.25L8.295 9.807v23.177H4.823v-.002zM33.627 32.982L44.083 5.758h3.88l11.144 27.225h-4.104l-3.176-8.244H40.442l-2.99 8.243h-3.825zm7.855-11.177h9.23l-2.84-7.54c-.868-2.292-1.512-4.173-1.933-5.647-.348 1.746-.836 3.48-1.468 5.2l-2.99 7.987zM59.218 32.982l10.53-14.188-9.286-13.036h4.29l4.94 6.982c1.028 1.45 1.758 2.563 2.19 3.343.607-.99 1.326-2.024 2.155-3.1l5.48-7.225h3.917L73.87 18.59l10.307 14.395H79.72l-6.853-9.713c-.384-.56-.78-1.164-1.188-1.82-.608.99-1.04 1.672-1.3 2.044l-6.835 9.49h-4.327v-.004z"/><path fill="#FABD18" d="M85.626 24.812v-3.36h10.27v3.36h-10.27zM119.444 23.438l3.603.91c-.755 2.96-2.114 5.217-4.076 6.77-1.96 1.555-4.36 2.33-7.195 2.33-2.935 0-5.32-.596-7.16-1.79-1.838-1.195-3.237-2.927-4.196-5.19s-1.44-4.7-1.44-7.3c0-2.834.542-5.307 1.625-7.418 1.083-2.11 2.625-3.714 4.625-4.81 2-1.096 4.2-1.644 6.602-1.644 2.724 0 5.014.693 6.87 2.08s3.152 3.337 3.882 5.85l-3.547.836c-.63-1.98-1.548-3.423-2.75-4.327-1.2-.904-2.71-1.356-4.53-1.356-2.093 0-3.84.5-5.247 1.503-1.406 1.003-2.393 2.35-2.962 4.04-.57 1.69-.854 3.432-.854 5.227 0 2.315.337 4.335 1.012 6.063s1.724 3.02 3.148 3.872c1.423.854 2.965 1.282 4.624 1.282 2.018 0 3.727-.582 5.125-1.746s2.346-2.89 2.84-5.182zM126.39 19.724c0-4.52 1.213-8.057 3.64-10.613 2.426-2.556 5.56-3.834 9.397-3.834 2.513 0 4.778.6 6.798 1.8 2.018 1.202 3.555 2.876 4.613 5.024 1.06 2.148 1.588 4.584 1.588 7.308 0 2.76-.557 5.23-1.67 7.41-1.115 2.18-2.693 3.828-4.736 4.95s-4.247 1.68-6.61 1.68c-2.564 0-4.855-.618-6.872-1.856-2.02-1.238-3.547-2.928-4.587-5.07-1.04-2.143-1.56-4.41-1.56-6.798zm3.714.055c0 3.28.882 5.865 2.646 7.753 1.764 1.888 3.977 2.832 6.64 2.832 2.71 0 4.94-.953 6.693-2.86 1.752-1.905 2.63-4.612 2.63-8.116 0-2.217-.376-4.15-1.126-5.804-.748-1.653-1.844-2.935-3.287-3.844-1.44-.91-3.06-1.365-4.855-1.365-2.55 0-4.745.876-6.583 2.628-1.838 1.752-2.758 4.677-2.758 8.774zM157.032 32.982V5.758h3.694l14.3 21.375V5.758h3.454v27.225h-3.694l-14.3-21.394v21.393h-3.454zM184.5 32.982V5.758h3.693l14.3 21.375V5.758h3.455v27.225h-3.695l-14.3-21.394v21.393H184.5zM212.077 32.982V5.758h19.687V8.97H215.68v8.34h15.062v3.193H215.68v9.267h16.715v3.213h-20.318zM256.796 23.438l3.604.91c-.756 2.96-2.114 5.217-4.077 6.77-1.962 1.555-4.36 2.33-7.196 2.33-2.934 0-5.32-.596-7.16-1.79-1.837-1.195-3.236-2.927-4.195-5.19-.96-2.267-1.438-4.7-1.438-7.3 0-2.834.54-5.307 1.625-7.418 1.082-2.11 2.623-3.714 4.623-4.81 2-1.096 4.2-1.644 6.602-1.644 2.725 0 5.016.693 6.873 2.08 1.855 1.387 3.15 3.337 3.88 5.85l-3.546.836c-.633-1.98-1.55-3.423-2.75-4.327-1.2-.904-2.71-1.356-4.53-1.356-2.093 0-3.84.5-5.246 1.503s-2.394 2.35-2.962 4.04c-.57 1.69-.854 3.432-.854 5.227 0 2.315.337 4.335 1.013 6.063.674 1.728 1.725 3.02 3.147 3.872 1.424.854 2.965 1.282 4.624 1.282 2.018 0 3.727-.582 5.126-1.746 1.394-1.164 2.34-2.89 2.836-5.182zM271.766 32.982V8.972h-8.97V5.757h21.578V8.97h-9.007v24.012h-3.6z"/><g fill="#4A3390"><path d="M14.574 63.505c-.853.41-2.558.818-4.742.818-5.062 0-8.872-3.07-8.872-8.726 0-5.4 3.81-9.06 9.378-9.06 2.238 0 3.65.462 4.263.77l-.56 1.815c-.878-.41-2.13-.716-3.622-.716-4.21 0-7.007 2.584-7.007 7.113 0 4.222 2.532 6.934 6.9 6.934 1.413 0 2.852-.28 3.784-.716l.48 1.767zM19.8 46.82v7.216h8.684V46.82h2.345v17.247h-2.346V55.98H19.8v8.087h-2.32V46.82h2.32zM37.76 58.643l-1.866 5.425h-2.398l6.1-17.247h2.798L48.52 64.07h-2.477l-1.918-5.425H37.76zm5.887-1.74l-1.758-4.965c-.4-1.126-.667-2.15-.933-3.147h-.054c-.266 1.024-.56 2.073-.906 3.123l-1.758 4.99h5.407zM51.164 64.067V46.82h2.53l5.756 8.726c1.332 2.02 2.37 3.84 3.224 5.604l.053-.025c-.213-2.304-.267-4.4-.267-7.09V46.82h2.185v17.247H62.3l-5.702-8.75c-1.252-1.92-2.45-3.89-3.356-5.76l-.08.026c.133 2.175.187 4.248.187 7.113v7.37h-2.186zM82.365 63.3c-1.04.358-3.09.946-5.515.946-2.718 0-4.956-.665-6.714-2.277-1.545-1.434-2.504-3.736-2.504-6.424.027-5.143 3.703-8.904 9.725-8.904 2.078 0 3.703.435 4.476.793l-.56 1.816c-.96-.408-2.158-.74-3.97-.74-4.37 0-7.22 2.61-7.22 6.935 0 4.375 2.744 6.96 6.927 6.96 1.52 0 2.558-.205 3.09-.46V56.8h-3.65v-1.79h5.915v8.29zM88.23 46.82v17.247h-2.318V46.82h2.318zM92.28 64.067V46.82h2.532l5.755 8.726c1.332 2.02 2.37 3.84 3.224 5.604l.054-.025c-.213-2.304-.267-4.4-.267-7.09V46.82h2.185v17.247h-2.344l-5.702-8.75c-1.252-1.92-2.45-3.89-3.356-5.76l-.08.026c.133 2.175.187 4.248.187 7.113v7.37H92.28zM123.482 63.3c-1.04.358-3.09.946-5.515.946-2.718 0-4.956-.665-6.714-2.277-1.545-1.434-2.504-3.736-2.504-6.424.026-5.143 3.702-8.904 9.724-8.904 2.078 0 3.703.435 4.476.793l-.56 1.816c-.96-.408-2.158-.74-3.97-.74-4.37 0-7.22 2.61-7.22 6.935 0 4.375 2.744 6.96 6.927 6.96 1.52 0 2.558-.205 3.09-.46V56.8h-3.65v-1.79h5.915v8.29zM132.68 46.82h2.317V62.2h7.673v1.867h-9.99V46.82zM147.574 46.82v17.247h-2.318V46.82h2.318zM155.568 64.067l-5.862-17.247h2.504l2.798 8.496c.772 2.328 1.438 4.427 1.918 6.448h.053c.506-1.996 1.252-4.17 2.05-6.423l3.038-8.52h2.478l-6.42 17.247h-2.558zM175.793 55.98h-6.98v6.22h7.78v1.867h-10.1V46.82h9.7v1.868h-7.38v5.45h6.98v1.843zM179.285 61.354c1.04.614 2.558 1.126 4.156 1.126 2.372 0 3.758-1.202 3.758-2.942 0-1.612-.96-2.533-3.384-3.43-2.93-.997-4.742-2.456-4.742-4.887 0-2.686 2.317-4.682 5.808-4.682 1.838 0 3.17.41 3.97.845l-.64 1.816c-.586-.308-1.785-.82-3.41-.82-2.45 0-3.384 1.408-3.384 2.585 0 1.612 1.093 2.405 3.57 3.326 3.037 1.127 4.583 2.535 4.583 5.068 0 2.66-2.053 4.964-6.29 4.964-1.73 0-3.622-.486-4.58-1.1l.585-1.868z"/></g></svg>