<?xml version="1.0" encoding="utf-8"?>
<!-- Generator: Adobe Illustrator 16.2.1, SVG Export Plug-In . SVG Version: 6.00 Build 0)  -->
<!DOCTYPE svg PUBLIC "-//W3C//DTD SVG 1.1//EN" "http://www.w3.org/Graphics/SVG/1.1/DTD/svg11.dtd">
<svg version="1.1" id="Layer_1" xmlns="http://www.w3.org/2000/svg" xmlns:xlink="http://www.w3.org/1999/xlink" x="0px" y="0px"
	 width="284.373px" height="62.19px" viewBox="0.001 5.276 284.373 62.19" enable-background="new 0.001 5.276 284.373 62.19"
	 xml:space="preserve">
<g>
	<path fill="#4A3390" d="M4.823,32.982V5.758h5.423l6.444,19.277c0.594,1.795,1.027,3.139,1.3,4.029
		c0.31-0.99,0.792-2.444,1.449-4.363l6.519-18.943h4.847v27.225h-3.473V10.197L19.42,32.982h-3.25L8.295,9.807v23.177H4.823V32.982z
		"/>
	<path fill="#4A3390" d="M33.627,32.982L44.083,5.758h3.881l11.143,27.225h-4.104l-3.176-8.244H40.442l-2.99,8.244H33.627z
		 M41.482,21.805h9.23l-2.841-7.541c-0.867-2.291-1.511-4.172-1.932-5.646c-0.347,1.746-0.835,3.479-1.467,5.2L41.482,21.805z"/>
	<path fill="#4A3390" d="M59.218,32.982l10.53-14.188L60.462,5.758h4.29l4.94,6.982c1.028,1.449,1.758,2.563,2.191,3.343
		c0.606-0.99,1.325-2.024,2.154-3.101l5.479-7.224h3.918L73.87,18.591l10.307,14.394H79.72l-6.853-9.713
		c-0.384-0.559-0.78-1.164-1.188-1.819c-0.607,0.989-1.04,1.671-1.3,2.043l-6.834,9.489h-4.327V32.982z"/>
	<path fill="#FABD18" d="M85.626,24.812v-3.361h10.27v3.361H85.626z"/>
	<path fill="#FABD18" d="M119.444,23.438l3.603,0.91c-0.755,2.959-2.114,5.217-4.076,6.771c-1.962,1.554-4.361,2.33-7.196,2.33
		c-2.935,0-5.321-0.597-7.159-1.792c-1.839-1.194-3.238-2.926-4.197-5.19s-1.439-4.698-1.439-7.298c0-2.835,0.542-5.308,1.625-7.419
		c1.083-2.11,2.625-3.714,4.625-4.81c1.999-1.096,4.2-1.644,6.602-1.644c2.724,0,5.014,0.693,6.871,2.08s3.151,3.337,3.881,5.85
		l-3.547,0.836c-0.631-1.981-1.548-3.423-2.749-4.327c-1.201-0.904-2.711-1.356-4.531-1.356c-2.093,0-3.841,0.501-5.247,1.504
		c-1.406,1.003-2.393,2.349-2.962,4.039c-0.57,1.69-0.854,3.433-0.854,5.228c0,2.315,0.337,4.335,1.012,6.063
		s1.724,3.019,3.148,3.872c1.423,0.854,2.965,1.282,4.624,1.282c2.018,0,3.727-0.582,5.125-1.746S118.949,25.729,119.444,23.438z"/>
	<path fill="#FABD18" d="M126.39,19.724c0-4.519,1.213-8.057,3.64-10.613c2.426-2.557,5.559-3.835,9.397-3.835
		c2.513,0,4.778,0.601,6.798,1.801c2.018,1.201,3.555,2.875,4.613,5.023c1.059,2.148,1.588,4.584,1.588,7.308
		c0,2.761-0.557,5.23-1.67,7.41c-1.115,2.18-2.693,3.828-4.736,4.949s-4.247,1.681-6.611,1.681c-2.563,0-4.854-0.618-6.871-1.856
		c-2.019-1.238-3.547-2.928-4.587-5.07C126.91,24.379,126.39,22.113,126.39,19.724z M130.104,19.779
		c0,3.282,0.882,5.866,2.646,7.754c1.764,1.888,3.977,2.832,6.639,2.832c2.711,0,4.942-0.953,6.694-2.86
		c1.752-1.905,2.629-4.612,2.629-8.116c0-2.216-0.375-4.15-1.125-5.803c-0.748-1.653-1.844-2.935-3.287-3.844
		c-1.441-0.91-3.061-1.365-4.855-1.365c-2.551,0-4.745,0.876-6.583,2.628C131.024,12.757,130.104,15.682,130.104,19.779z"/>
	<path fill="#FABD18" d="M157.032,32.982V5.758h3.694l14.301,21.375V5.758h3.453v27.225h-3.694l-14.3-21.394v21.394H157.032z"/>
	<path fill="#FABD18" d="M184.499,32.982V5.758h3.694l14.301,21.375V5.758h3.454v27.225h-3.695l-14.3-21.394v21.394H184.499z"/>
	<path fill="#FABD18" d="M212.077,32.982V5.758h19.687V8.97H215.68v8.339h15.062v3.194H215.68v9.267h16.715v3.213H212.077z"/>
	<path fill="#FABD18" d="M256.796,23.438l3.604,0.91c-0.756,2.959-2.114,5.217-4.077,6.771c-1.962,1.554-4.361,2.33-7.196,2.33
		c-2.934,0-5.32-0.597-7.159-1.792c-1.838-1.194-3.237-2.926-4.196-5.19c-0.959-2.266-1.438-4.698-1.438-7.298
		c0-2.835,0.541-5.308,1.625-7.419c1.083-2.11,2.624-3.714,4.624-4.81c1.999-1.096,4.2-1.644,6.602-1.644
		c2.725,0,5.016,0.693,6.873,2.08c1.855,1.387,3.149,3.337,3.881,5.85l-3.547,0.836c-0.633-1.981-1.549-3.423-2.75-4.327
		c-1.199-0.904-2.711-1.356-4.531-1.356c-2.092,0-3.84,0.501-5.245,1.504s-2.394,2.349-2.962,4.039
		c-0.569,1.69-0.854,3.433-0.854,5.228c0,2.315,0.337,4.335,1.013,6.063c0.674,1.728,1.725,3.019,3.147,3.872
		c1.424,0.854,2.965,1.282,4.624,1.282c2.018,0,3.727-0.582,5.126-1.746C255.354,27.456,256.301,25.729,256.796,23.438z"/>
	<path fill="#FABD18" d="M271.766,32.982V8.971h-8.971V5.758h21.579V8.97h-9.007v24.012H271.766z"/>
</g>
<g>
	<path fill="#4A3390" d="M14.574,63.505c-0.853,0.409-2.558,0.818-4.742,0.818c-5.062,0-8.872-3.07-8.872-8.726
		c0-5.399,3.81-9.059,9.378-9.059c2.238,0,3.65,0.461,4.263,0.768l-0.56,1.816c-0.879-0.409-2.131-0.716-3.623-0.716
		c-4.209,0-7.007,2.584-7.007,7.113c0,4.223,2.531,6.935,6.9,6.935c1.412,0,2.851-0.281,3.783-0.716L14.574,63.505z"/>
	<path fill="#4A3390" d="M19.799,46.82v7.216h8.685V46.82h2.345v17.247h-2.345v-8.086h-8.685v8.086h-2.318V46.82H19.799z"/>
	<path fill="#4A3390" d="M37.759,58.643l-1.865,5.425h-2.398l6.101-17.247h2.797l6.127,17.247h-2.478l-1.918-5.425H37.759z
		 M43.647,56.902l-1.758-4.964c-0.399-1.126-0.666-2.149-0.932-3.147h-0.054c-0.266,1.023-0.559,2.072-0.906,3.122l-1.758,4.989
		H43.647z"/>
	<path fill="#4A3390" d="M51.164,64.067V46.82h2.531l5.755,8.726c1.332,2.021,2.371,3.839,3.224,5.604l0.053-0.025
		c-0.213-2.304-0.267-4.401-0.267-7.089V46.82h2.185v17.247H62.3l-5.702-8.751c-1.252-1.92-2.451-3.89-3.356-5.758l-0.08,0.025
		c0.133,2.175,0.187,4.248,0.187,7.113v7.37H51.164z"/>
	<path fill="#4A3390" d="M82.365,63.3c-1.039,0.358-3.09,0.946-5.515,0.946c-2.718,0-4.956-0.665-6.714-2.277
		c-1.545-1.433-2.504-3.735-2.504-6.423c0.027-5.143,3.703-8.904,9.725-8.904c2.078,0,3.703,0.435,4.476,0.793l-0.56,1.816
		c-0.959-0.409-2.158-0.741-3.97-0.741c-4.369,0-7.22,2.609-7.22,6.935c0,4.375,2.744,6.96,6.927,6.96
		c1.519,0,2.558-0.205,3.09-0.461V56.8h-3.65v-1.791h5.915V63.3z"/>
	<path fill="#4A3390" d="M88.23,46.82v17.247h-2.318V46.82H88.23z"/>
	<path fill="#4A3390" d="M92.281,64.067V46.82h2.531l5.755,8.726c1.332,2.021,2.371,3.839,3.224,5.604l0.053-0.025
		c-0.213-2.304-0.267-4.401-0.267-7.089V46.82h2.185v17.247h-2.344l-5.702-8.751c-1.252-1.92-2.451-3.89-3.356-5.758l-0.08,0.025
		c0.133,2.175,0.187,4.248,0.187,7.113v7.37H92.281z"/>
	<path fill="#4A3390" d="M123.482,63.3c-1.039,0.358-3.09,0.946-5.515,0.946c-2.718,0-4.956-0.665-6.714-2.277
		c-1.545-1.433-2.504-3.735-2.504-6.423c0.027-5.143,3.703-8.904,9.725-8.904c2.078,0,3.703,0.435,4.476,0.793l-0.56,1.816
		c-0.959-0.409-2.158-0.741-3.97-0.741c-4.369,0-7.22,2.609-7.22,6.935c0,4.375,2.744,6.96,6.927,6.96
		c1.519,0,2.558-0.205,3.09-0.461V56.8h-3.65v-1.791h5.915V63.3z"/>
	<path fill="#4A3390" d="M132.679,46.82h2.318v15.379h7.673v1.868h-9.991V46.82z"/>
	<path fill="#4A3390" d="M147.574,46.82v17.247h-2.318V46.82H147.574z"/>
	<path fill="#4A3390" d="M155.568,64.067l-5.862-17.247h2.504l2.798,8.496c0.772,2.328,1.438,4.427,1.918,6.448h0.053
		c0.507-1.996,1.253-4.171,2.052-6.423l3.037-8.521h2.478l-6.421,17.247H155.568z"/>
	<path fill="#4A3390" d="M175.793,55.981h-6.98v6.218h7.779v1.868h-10.098V46.82h9.698v1.868h-7.38v5.45h6.98V55.981z"/>
	<path fill="#4A3390" d="M179.285,61.354c1.039,0.614,2.558,1.126,4.156,1.126c2.371,0,3.757-1.202,3.757-2.942
		c0-1.612-0.96-2.533-3.384-3.429c-2.931-0.998-4.742-2.457-4.742-4.888c0-2.687,2.317-4.683,5.808-4.683
		c1.838,0,3.171,0.409,3.97,0.845l-0.64,1.816c-0.586-0.307-1.785-0.819-3.41-0.819c-2.451,0-3.384,1.408-3.384,2.585
		c0,1.612,1.093,2.405,3.57,3.326c3.037,1.126,4.583,2.534,4.583,5.067c0,2.661-2.052,4.964-6.288,4.964
		c-1.731,0-3.623-0.486-4.582-1.101L179.285,61.354z"/>
</g>
</svg>
