<?xml version="1.0" encoding="utf-8"?>
<!-- Generator: Adobe Illustrator 18.1.1, SVG Export Plug-In . SVG Version: 6.00 Build 0)  -->
<svg version="1.1" id="Layer_1" xmlns="http://www.w3.org/2000/svg" xmlns:xlink="http://www.w3.org/1999/xlink" x="0px" y="0px"
	 viewBox="0 0 320 70" enable-background="new 0 0 320 70" xml:space="preserve">
<g>
	<path fill="#FFFFFF" d="M155.3,25.2h13.6v2.7h-10.8v6.3h10v2.7h-10v6.8h11.3v2.7h-14.2V25.2z"/>
	<path fill="#FFFFFF" d="M172.4,32.2h2.5v2.2h0.1c0.1-0.2,0.2-0.4,0.5-0.7c0.2-0.3,0.6-0.6,1-0.9c0.4-0.3,0.8-0.5,1.4-0.7
		c0.5-0.2,1.1-0.3,1.7-0.3c1.1,0,1.9,0.2,2.7,0.7c0.7,0.4,1.3,1.1,1.8,2c0.5-0.9,1.1-1.5,1.9-2s1.7-0.7,2.5-0.7c1.1,0,2,0.2,2.7,0.5
		c0.7,0.4,1.2,0.8,1.6,1.4c0.4,0.6,0.7,1.3,0.8,2c0.2,0.7,0.2,1.5,0.2,2.3v8.2h-2.7v-7.9c0-0.5,0-1.1-0.1-1.6
		c-0.1-0.5-0.2-0.9-0.4-1.3c-0.2-0.4-0.5-0.7-0.9-0.9c-0.4-0.2-0.9-0.3-1.6-0.3c-1.3,0-2.2,0.4-2.8,1.2c-0.6,0.8-0.8,1.8-0.8,3.1
		v7.7h-2.7V39c0-0.7,0-1.3-0.1-1.9c-0.1-0.6-0.2-1-0.4-1.4c-0.2-0.4-0.5-0.7-0.9-1c-0.4-0.2-0.9-0.3-1.6-0.3c-0.5,0-0.9,0.1-1.4,0.3
		c-0.4,0.2-0.8,0.5-1.2,0.9c-0.3,0.4-0.6,0.9-0.8,1.4c-0.2,0.6-0.3,1.3-0.3,2.1v7.3h-2.7V32.2z"/>
	<path fill="#FFFFFF" d="M197.4,32.2h2.7v2h0.1c0.5-0.8,1.2-1.3,2.1-1.8c0.9-0.4,1.8-0.6,2.8-0.6c1.1,0,2.1,0.2,3,0.6
		c0.9,0.4,1.6,0.9,2.3,1.6c0.6,0.7,1.1,1.5,1.4,2.4c0.3,0.9,0.5,1.9,0.5,2.9c0,1.1-0.2,2-0.5,2.9c-0.3,0.9-0.8,1.7-1.4,2.4
		s-1.4,1.2-2.3,1.6c-0.9,0.4-1.9,0.6-3,0.6c-1,0-2-0.2-2.9-0.6c-0.9-0.4-1.6-1-2.1-1.7h-0.1v10.5h-2.7V32.2z M204.7,34.4
		c-0.7,0-1.4,0.1-1.9,0.4c-0.6,0.2-1.1,0.6-1.5,1c-0.4,0.4-0.7,0.9-0.9,1.6c-0.2,0.6-0.3,1.3-0.3,2c0,0.7,0.1,1.4,0.3,2
		c0.2,0.6,0.5,1.1,0.9,1.6c0.4,0.4,0.9,0.8,1.5,1c0.6,0.3,1.2,0.4,1.9,0.4c0.7,0,1.4-0.1,1.9-0.4c0.6-0.2,1.1-0.6,1.5-1
		c0.4-0.4,0.7-0.9,0.9-1.6c0.2-0.6,0.3-1.3,0.3-2c0-0.7-0.1-1.4-0.3-2c-0.2-0.6-0.5-1.1-0.9-1.6c-0.4-0.4-0.9-0.8-1.5-1
		C206.1,34.5,205.4,34.4,204.7,34.4z"/>
	<path fill="#FFFFFF" d="M215.4,23.8h2.7v22.6h-2.7V23.8z"/>
	<path fill="#FFFFFF" d="M221.2,39.3c0-1,0.2-2,0.6-2.9c0.4-0.9,0.9-1.7,1.6-2.4c0.7-0.7,1.5-1.2,2.4-1.6c0.9-0.4,1.9-0.6,3-0.6
		c1.1,0,2,0.2,3,0.6c0.9,0.4,1.7,0.9,2.4,1.6s1.2,1.5,1.6,2.4c0.4,0.9,0.6,1.9,0.6,2.9c0,1-0.2,2-0.6,2.9c-0.4,0.9-0.9,1.7-1.6,2.4
		c-0.7,0.7-1.5,1.2-2.4,1.6c-0.9,0.4-1.9,0.6-3,0.6c-1.1,0-2-0.2-3-0.6c-0.9-0.4-1.7-0.9-2.4-1.6c-0.7-0.7-1.2-1.5-1.6-2.4
		C221.4,41.3,221.2,40.3,221.2,39.3z M224.1,39.3c0,0.7,0.1,1.4,0.3,2c0.2,0.6,0.5,1.1,0.9,1.6c0.4,0.4,0.9,0.8,1.5,1
		c0.6,0.3,1.2,0.4,1.9,0.4c0.7,0,1.4-0.1,1.9-0.4c0.6-0.2,1.1-0.6,1.5-1c0.4-0.4,0.7-0.9,0.9-1.6c0.2-0.6,0.3-1.3,0.3-2
		c0-0.7-0.1-1.4-0.3-2c-0.2-0.6-0.5-1.1-0.9-1.6c-0.4-0.4-0.9-0.8-1.5-1c-0.6-0.2-1.2-0.4-1.9-0.4c-0.7,0-1.4,0.1-1.9,0.4
		c-0.6,0.2-1.1,0.6-1.5,1c-0.4,0.4-0.7,0.9-0.9,1.6C224.2,37.9,224.1,38.6,224.1,39.3z"/>
	<path fill="#FFFFFF" d="M236.9,32.2h3.1l4.2,11.1h0.1l4-11.1h2.9l-6.7,17.2c-0.2,0.6-0.5,1.2-0.7,1.7c-0.3,0.5-0.6,0.9-0.9,1.3
		c-0.4,0.4-0.8,0.6-1.3,0.8c-0.5,0.2-1.1,0.3-1.9,0.3c-0.4,0-0.8,0-1.2-0.1c-0.4,0-0.8-0.2-1.2-0.3l0.3-2.4c0.5,0.2,1.1,0.3,1.6,0.3
		c0.4,0,0.8-0.1,1.1-0.2c0.3-0.1,0.5-0.3,0.7-0.5c0.2-0.2,0.4-0.5,0.5-0.7c0.1-0.3,0.3-0.6,0.4-1l0.9-2.2L236.9,32.2z"/>
	<path fill="#FFFFFF" d="M253.1,32.2h2.5v2.2h0.1c0.1-0.2,0.2-0.4,0.5-0.7c0.2-0.3,0.6-0.6,1-0.9c0.4-0.3,0.8-0.5,1.4-0.7
		c0.5-0.2,1.1-0.3,1.7-0.3c1.1,0,1.9,0.2,2.7,0.7c0.7,0.4,1.3,1.1,1.8,2c0.5-0.9,1.1-1.5,1.9-2s1.7-0.7,2.5-0.7c1.1,0,2,0.2,2.7,0.5
		c0.7,0.4,1.2,0.8,1.6,1.4c0.4,0.6,0.7,1.3,0.8,2c0.2,0.7,0.2,1.5,0.2,2.3v8.2h-2.7v-7.9c0-0.5,0-1.1-0.1-1.6
		c-0.1-0.5-0.2-0.9-0.4-1.3c-0.2-0.4-0.5-0.7-0.9-0.9c-0.4-0.2-0.9-0.3-1.6-0.3c-1.3,0-2.2,0.4-2.8,1.2c-0.6,0.8-0.8,1.8-0.8,3.1
		v7.7h-2.7V39c0-0.7,0-1.3-0.1-1.9c-0.1-0.6-0.2-1-0.4-1.4c-0.2-0.4-0.5-0.7-0.9-1c-0.4-0.2-0.9-0.3-1.6-0.3c-0.5,0-0.9,0.1-1.4,0.3
		c-0.4,0.2-0.8,0.5-1.2,0.9c-0.3,0.4-0.6,0.9-0.8,1.4c-0.2,0.6-0.3,1.3-0.3,2.1v7.3h-2.7V32.2z"/>
	<path fill="#FFFFFF" d="M280.1,40.3c0,0.6,0.1,1.2,0.4,1.7c0.3,0.5,0.6,0.9,1.1,1.3c0.4,0.4,0.9,0.6,1.5,0.8
		c0.6,0.2,1.2,0.3,1.8,0.3c0.8,0,1.6-0.2,2.2-0.6c0.6-0.4,1.2-0.9,1.7-1.5l2,1.6c-1.5,1.9-3.6,2.9-6.3,2.9c-1.1,0-2.1-0.2-3-0.6
		c-0.9-0.4-1.7-0.9-2.3-1.6c-0.6-0.7-1.1-1.5-1.4-2.4c-0.3-0.9-0.5-1.9-0.5-2.9c0-1.1,0.2-2,0.6-2.9c0.4-0.9,0.9-1.7,1.5-2.4
		c0.6-0.7,1.4-1.2,2.3-1.6c0.9-0.4,1.9-0.6,2.9-0.6c1.3,0,2.3,0.2,3.2,0.7c0.9,0.4,1.6,1,2.1,1.7c0.6,0.7,1,1.5,1.2,2.4
		s0.4,1.8,0.4,2.7v1H280.1z M288.6,38.1c0-0.6-0.1-1.1-0.3-1.6s-0.4-0.9-0.8-1.3c-0.3-0.4-0.8-0.7-1.3-0.9c-0.5-0.2-1.1-0.3-1.8-0.3
		c-0.7,0-1.3,0.1-1.8,0.4c-0.5,0.2-1,0.6-1.4,1c-0.4,0.4-0.7,0.8-0.9,1.3c-0.2,0.5-0.3,1-0.3,1.4H288.6z"/>
	<path fill="#FFFFFF" d="M294.2,32.2h2.7v2.2h0.1c0.3-0.8,0.9-1.4,1.8-1.8c0.8-0.5,1.8-0.7,2.9-0.7c0.7,0,1.3,0.1,2,0.3
		c0.6,0.2,1.2,0.5,1.6,1c0.5,0.4,0.8,1,1.1,1.7c0.3,0.7,0.4,1.5,0.4,2.4v9.1h-2.7V38c0-0.7-0.1-1.2-0.3-1.7
		c-0.2-0.5-0.4-0.8-0.7-1.1c-0.3-0.3-0.6-0.5-1-0.6c-0.4-0.1-0.8-0.2-1.2-0.2c-0.6,0-1.1,0.1-1.6,0.3c-0.5,0.2-0.9,0.5-1.3,0.9
		c-0.4,0.4-0.6,0.9-0.8,1.5c-0.2,0.6-0.3,1.3-0.3,2.1v7.3h-2.7V32.2z"/>
	<path fill="#FFFFFF" d="M318,34.5h-3.9V41c0,0.4,0,0.8,0,1.2c0,0.4,0.1,0.7,0.2,1c0.1,0.3,0.3,0.6,0.6,0.7c0.3,0.2,0.7,0.3,1.2,0.3
		c0.3,0,0.6,0,1-0.1c0.3-0.1,0.6-0.2,0.9-0.3v2.4c-0.3,0.2-0.7,0.3-1.2,0.4c-0.5,0.1-0.9,0.1-1.2,0.1c-1,0-1.8-0.1-2.4-0.4
		c-0.6-0.3-1-0.7-1.3-1.1c-0.3-0.5-0.4-1-0.5-1.5c0-0.6-0.1-1.1-0.1-1.7v-7.4h-3.1v-2.3h3.1v-4h2.7v4h3.9V34.5z"/>
</g>
<g>
	<g>
		<path fill="#FFFFFF" d="M33.2,17.3c0.2,0,0.4-0.1,0.5,0.1c1.4,0.6,2.8,1.6,4.3,2.1c0.8,0.6,1.8,0.8,2.5,1.3
			c1.7,0.5,3.4,1.7,5.1,2.2c1.7,0.8,3.4,1.6,5.1,2.6c1.5,0.4,2.7,1.5,4.2,2c0.1,0.1,0.2,0,0.4,0.1c0.9,0.8,2.2,1,3,1.8
			c-0.9-0.2-1.6-0.7-2.5-0.9c-2-1.2-4.3-1.8-6.4-3.1c-2.2-1.1-4.6-2-6.9-3.1c0-0.2-0.4-0.2-0.5-0.4c-3.2-1.1-5.9-3.1-9.3-3.9
			c-2.2,0.8-4.5,1.8-6.7,2.6c-0.5,0.4-1.1,0.4-1.5,0.7c-4.7,2.1-9.6,4.1-14.2,6.3c-0.9,0.3-2.6,1-2.7,1.3c-0.1,0.4-0.2,0.8,0.1,1.2
			c-0.2,0.2-0.7,0.2-1.1,0.2c-0.4-0.4-0.2-1.3,0-1.5c0.2-0.2,1.8-0.9,2.5-1.2c3-1.2,6.3-2.9,9.3-4.2c0.3-0.2,0.6-0.3,0.9-0.4
			c1.4-0.6,2.8-1.2,4.2-2c1-0.1,1.6-1,2.6-1c1.4-0.6,2.4-1.2,3.9-1.7c0.9-0.5,1.8-0.8,2.8-1.2H33.2L33.2,17.3z"/>
		<path fill="#FFFFFF" d="M38.2,23.1c0,0.5,0.2,1,0.1,1.5c-0.3-0.4-0.2-1-0.5-1.4c-0.1-0.3-0.1-0.5-0.5-0.8
			c-0.3-0.5-0.5-0.8-0.9-1.1c-0.1-0.1-0.3-0.3-0.4-0.3c-0.3-0.1-0.6-0.3-1-0.4c-0.3-0.1-0.7-0.3-1-0.4c0-0.1-0.3,0-0.3-0.1
			c-0.4,0-0.8,0-1.3,0.2c-0.5,0.1-0.8,0.2-1.2,0.3c-0.6,0.5-1.3,1.1-1.8,1.7c-0.2,0.4-0.5,0.7-0.6,1.1c-0.2,0.4-0.3,0.8-0.4,1.2
			c0,0.3,0,0.6,0,0.8c0.1,0.3,0.1,0.5,0.2,0.8c0.2,0.5,0.3,1.1,0.7,1.5c0.2,0.2,0.3,0.4,0.4,0.5c0.4,0.4,0.8,0.7,1.1,1
			c0.3,0.2,0.5,0.3,0.8,0.3c0.3,0.1,0.5,0.1,0.8,0.2c0.2,0,0.5,0.2,0.6,0.2V30c-0.9,0.2-1.7-0.2-2.5-0.5c-0.3-0.2-0.8-0.4-1.2-0.8
			c-1.5-1.2-1.9-2.9-1.7-4.8c0-0.3,0.1-0.5,0.2-0.6c0.4-1.7,1.9-2.8,3.4-3.5c1-0.3,1.5-0.3,2.2-0.4C35.4,19.5,37.4,21,38.2,23.1z"/>
		<path fill="#FFFFFF" d="M34.9,21.5c0.2,0.1,0.4,0.1,0.6,0.3c0.5,0.2,0.7,0.7,1.1,0.9c0.3,0.4,0.5,0.8,0.5,1.2
			c0.3,0.5,0.2,1.1,0.2,1.6c0,0.5-0.3,1-0.4,1.4c-0.3,0.4-0.4,0.6-0.8,0.9c-0.5,0.4-1,0.5-1.4,0.8c-0.5,0.2-0.9,0.2-1.4,0.2
			c-0.6-0.1-1.1-0.2-1.6-0.5c-0.4-0.1-0.8-0.5-1.1-0.8c-0.1-0.1-0.2-0.3-0.3-0.4c0.3,0,0.5,0.3,0.7,0.5c0.3,0.2,0.6,0.4,0.9,0.5
			c0.5,0.1,0.8,0.2,1.2,0.2c0.3,0,0.6,0.1,0.9-0.1c0.3-0.1,0.3-0.2,0.7-0.3c0.3-0.3,0.9-0.6,1.2-0.9c0.3-0.3,0.3-0.5,0.5-0.8
			c0.2-0.3,0.2-0.5,0.3-0.9c0.1-0.4,0-0.7,0-1c-0.2-0.5-0.3-1.1-0.7-1.5l-0.2-0.3c-0.4-0.4-0.7-0.7-1.1-1
			C34.7,21.5,34.8,21.5,34.9,21.5z"/>
		<path fill="#FFFFFF" d="M26.1,25.3c0.4,1.2,0,2.5-0.6,3.5c-0.3,0.5-0.8,0.7-1.3,0.8c-1.5,0-2.4-1.1-2.6-2.4
			c-0.6,0.5-1.2,1.3-2,1.6c-0.4,0.4-1,0.5-1.5,0.7c-0.7,0.4-1.6,0.1-2.4,0.2c-0.9,0-1.8-0.4-2.6-0.7l-0.1-0.1
			c0.9,0.2,1.9,0.1,2.5-0.5c0.7,0.2,1.3,0.4,2.1,0.3c0.8-0.2,1.5-0.4,2.2-0.8c0.2,0,0.3-0.1,0.5-0.2c0.2-0.2,0.5-0.3,0.7-0.4
			c0.4-0.1,0.7-0.4,1-0.7c0.2,0.2,0.3,0.5,0.5,0.7c0.3,0.3,0.6,0.6,0.9,0.8c0.3,0.2,0.6,0.2,0.7,0.2c0.2-0.1,0.5,0,0.7-0.1
			c0.2,0,0.4-0.2,0.5-0.3c-0.1,0,0.2-0.2,0.2-0.2c0.3-0.4,0.3-0.6,0.5-1c0.1-0.2,0.1-0.3,0.1-0.5c0-0.2,0-0.3,0-0.5
			c0-0.2-0.2-0.3-0.2-0.5l-0.1-0.1c-0.2-0.4-0.6-0.5-0.9-0.6c-0.3-0.1-0.5-0.2-0.8-0.2c-0.2,0-0.6-0.1-1,0c-0.7,0.1-1.2,0.2-1.9,0.5
			c-0.3,0.1-0.5,0.2-1,0.4c-0.1,0.1-0.4,0.2-0.5,0.3c-0.2,0.1-0.4,0.2-0.5,0.3c-0.9,0.7-1.4,1.5-2.4,2l1.9-2.2
			c0.4-0.2,0.6-0.5,1.1-0.7c0.3-0.2,0.5-0.3,0.8-0.5c1.1-0.5,2.4-0.7,3.6-0.4C25,24,25.7,24.6,26.1,25.3z"/>
		<path fill="#FFFFFF" d="M40.4,25.2c-0.2,0.2-0.1,0.6-0.2,1.1c0.1,0.3-0.1,0.6,0.1,0.8c0,0.2-0.1,0.2,0,0.3c0,0.2,0,0.1,0,0.2
			l0,0.1c0.2,0.5,0.6,0.9,0.9,1c0.3,0.3,0.9,0.3,1.3,0.2c0.4-0.2,1-0.3,1.2-1l0.2,0c-0.6,0.8-1.1,2-2.3,2c-0.9-0.1-1.6-0.8-2-1.6
			c-0.3-0.9-0.5-2.4,0.2-3.4c0.4-0.4,1.1-0.7,1.5-0.9C41.3,24.4,40.6,24.7,40.4,25.2z"/>
		<path fill="#FFFFFF" d="M48.6,27.3c-1-0.4-1.3-1-2-1.7c-0.3-0.2-0.7-0.5-0.8-0.8C47.1,25.1,47.6,26.6,48.6,27.3z"/>
		<path fill="#FFFFFF" d="M45.5,27.1c0.3,0.3,0.5,0.6,0.9,0.8c0.2,0.2,0.7,0.3,1.1,0.5c0.2,0.1,0.3,0.1,0.4,0.1
			c0.4-0.1,0.8,0.2,1.1,0.1c0.6,0,1.2-0.1,1.7,0.1c0.7,0.1,1.4,0.5,2.2,0.2c-0.8,0.5-1.8,0.8-2.7,0.9c-0.4-0.1-0.5,0.1-0.8,0
			c-1.8-0.1-3.4-0.8-4.5-2.1c-0.2-0.1-0.3-0.2-0.4-0.4c0.3-0.2,0.2-0.6,0.5-0.7C45.1,26.8,45.2,27.1,45.5,27.1z"/>
		<path fill="#FFFFFF" d="M28.6,35.2c0,0.3,0.3,0.4,0.2,0.7c-0.1,0.2-0.2,0.3-0.2,0.5c-0.3,0.1-0.5,0.2-0.8,0.2
			c-0.3-0.3-0.2-0.7-0.4-1c0.1-0.3,0.4-0.7,0.6-0.6C28.2,35.1,28.5,35,28.6,35.2z"/>
		<path fill="#FFFFFF" d="M34.1,35.6c0.3,0.7,0,1.1-0.1,1.7l-0.1,0.1c-0.1,0.1-0.1,0.1-0.2,0.2l-0.1,0.1c-0.1,0-0.1,0-0.1,0.1
			c-0.2,0-0.4,0-0.5-0.2c-0.1-0.8-0.9-1.7,0-2.2C33.5,34.9,33.8,35.4,34.1,35.6z"/>
		<path fill="#FFFFFF" d="M17.6,36.3c0.1,0.4-0.1,0.8-0.2,1.1c0.2,0.2-0.2,0.2-0.1,0.5c-0.5,0.2,0.1,0.8-0.3,1.1
			c-0.4-0.4-0.1-1.1-0.4-1.4c-0.1-0.5,0.1-1,0.1-1.4c0.1-0.2,0.3-0.2,0.5-0.3C17.4,35.8,17.5,36.1,17.6,36.3z"/>
		<path fill="#FFFFFF" d="M66.7,50.5c-0.1-0.3-0.7-0.4-0.4-0.8c-1.5-0.4-2.8-1.5-4.2-2c-1.7-0.6-3.5-1-5-1.8l-0.3-0.2l0,0.4l0,0.1
			c0,0,0,0,0,0l0,0.1c0,0.1,0,0.2-0.1,0.3c-0.2-1.4,0-2.8-0.3-4.2c0.4-0.1-0.2-0.6,0.2-0.8c0-0.2,0-0.3-0.1-0.5
			c-0.1-0.4,0.1-1-0.1-1.3c0-1,0.4-1.9,0.7-2.7c0.8-1.2,0.4-2.9,0.5-4.3c0.3-0.1,0.7-0.1,1-0.1c-1,0-2.2-0.1-2.8,0.1
			c0.4,0.1,0.9,0,1.3,0.1c0,1,0,2.2-0.5,3.1c-0.2,0.2-0.3,0.6-0.7,0.7c-0.1,0-0.1-0.1-0.1-0.2c0.2-0.4,0.4-0.7,0.4-1.2
			c-0.2-0.5-0.7-0.5-1.1-0.5c-0.8,0.3-0.4,1.1-0.4,1.7c-0.2,0-0.3-0.4-0.5-0.3c-0.2-0.2-0.1-0.5-0.3-0.7c0-0.8-0.2-1.8-0.2-2.7h-0.4
			c-0.1,0.7-0.1,1.4,0,2c-0.1,0.6,0.3,1,0.1,1.6c0.2,0.6,0.1,1.4,0.4,2l0.1,2c-0.1,0.6-0.3,1-0.2,1.6c0.1,0,0.1,0,0.2,0
			c0.4,0.2,0.1,0.7,0.2,1c-0.2,0.6,0,1.4-0.2,2c-0.1,0.2-0.2-0.1-0.2,0.1c-0.9-0.3-1.9-0.5-3-0.6l0.1-1.4l0.3,0
			c0.2-3.5,1-6.7,1-10.3l-0.9,0.1v1.3c-0.2,0.6-0.1,1.4-0.3,2c0,0.2-0.3,0.3-0.5,0.2c-0.1-0.1,0-0.2,0.1-0.3c0.1-0.5,0.2-1,0-1.4
			c-0.2-0.1-0.5-0.3-0.7-0.1c-0.3,0.2-0.6,0.5-0.6,0.8c-0.1,0.4,0.2,0.5,0.1,0.9c0,0.3,0.5,0.1,0.6,0.3c-0.1,0.1-0.1,0.1-0.2,0.1
			c0.2,0.9-0.2,1.8-0.1,2.7c-0.2-0.9-0.5-1.9-0.5-2.8c0.1-0.1-0.1-0.3-0.2-0.4c-0.1-1.2-0.5-2.2-0.6-3.5c-0.2,0-0.5,0-0.7,0.1
			c0,0.7,0.2,1.4,0.1,2.1c0.3,1.3,0.3,2.6,0.6,3.9c-0.2,1,0,2,0,3c0.1,0.3,0.2,0.7,0.2,1c0.1,0.1,0.3,0,0.5,0.1c0,0.4-0.1,1-0.1,1.2
			c-0.1,0.1-0.2,0-0.3,0c-1-0.1-2.2-0.2-3.1-0.3c0.1-0.8-0.2-1.5-0.2-2.3c0.2,0,0.3-0.3,0.4-0.4c-0.4-1,0.2-2.1-0.2-3
			c0.1-0.5,0.7-0.9,0.5-1.5c0.2-1.2,0-2.4-0.1-3.6l0.3-0.1h-0.1c0,0-0.1,0,0-0.1l-11.5,0l-1.4-0.1c0-0.1,0-0.1,0-0.1l8.8-0.3
			c1.1,0,2.1-0.2,3.3,0c2.6-0.3,5.3-0.3,7.9-0.2c0.9,0.1,1.8-0.1,2.8,0c1.2-0.2,2.6-0.1,3.9-0.1c0.1,0.2,0.4,0.3,0.7,0.4
			c0.1-0.4,0.2-0.9-0.2-1.2c-2.2-0.2-4.3,0.3-6.6,0.2c-0.6,0.1-1.2-0.2-1.7-0.1c-1.8-0.1-3.6,0.1-5.4,0.1c-2.3-0.1-4.5,0.2-6.9,0.1
			l-0.1,0c-3.2,0.2-6.3,0.2-9.6,0.1c-1.4,0.2-2.8,0-4.1-0.1c-1.3,0.3-2.7,0-3.9,0.1c-1,0.1-2.2,0.1-3.2-0.1c-2,0.3-4,0-6-0.1
			c-1.9-0.1-3.7,0.3-5.5,0c-0.4,0.2-1.1,0.2-1.5,0c0-0.8-0.2-1.6,0.1-2.3l1.2-0.5c0.2-0.1,0.6-0.3,0.8-0.3c0.8-0.5,1.7-0.6,2.5-1
			c1.1-0.9,2.6-1,3.7-1.9c2.4-1,4.8-2.1,7.1-3.2c3-1.5,6.4-2.8,9.5-4.3c1-0.2,2.8-1.2,3.2-1.2c0.3,0,6.9,3.4,12.2,5.8
			c2.4,1.3,5,2.2,7.3,3.7c2.2,0.8,4.3,2,6.5,2.9c-1.3-0.9-2.9-1.5-4.3-2.3c-0.3-0.1-0.6-0.2-0.8-0.4c-1.5-0.7-2.8-1.7-4.4-2.1
			L49.9,24c-1.2-0.5-2.5-1.3-3.8-1.8c-1.9-1.3-4-1.9-5.9-2.9c-1-0.6-2.2-1-3.1-1.8c-0.1-0.1-3.1-1.8-3.7-1.6c-1,0.4-2,0.8-3.1,1.2
			c-0.4,0.1-0.7,0.4-1.2,0.4c-1.3,0.7-2.6,1.2-3.9,1.8c-3.5,1.7-7.3,3-10.8,4.8c-1.1,0.4-2.1,1-3.2,1.3c-0.3,0.1-2.3,1.2-3.6,1.7
			c-0.4,0.3-2.1,0.7-2.8,1.6C4.4,29.7,4.7,31,5,32.1c0.6,0.1,2-0.5,1.9,0.5h0c0,0.2-0.2,0.6,0.1,0.7c0.7,0,1.4,0.2,2,0
			c0,0.2,0.2,0.3,0.3,0.4c-0.2,1.4,0,2.7,0.2,4c0.2,0.1-0.2,0.3,0.1,0.4c0.1,0.3,0,0.5,0,0.8c-0.1,0.9-0.1,1.7-0.2,2.5
			c-0.2,0.5-0.1,1.1-0.1,1.6c0.1,0.4,0.5,0,0.6,0.4c-0.2,0.4,0.3,0.7,0.1,1c-0.1,1.3,0.4,2.5,0.2,3.7h-0.1c-0.3,0.2-0.5-0.1-0.6-0.3
			c-0.1,0-0.2,0-0.2,0.1c-0.7,0-1.1,0.6-1.8,0.7c-2.1,1.2-5.8,3.3-6.3,3.7c-0.5,0.4,0,0.5,0,0.5c0.3-0.1,0.7-0.2,1-0.3
			c0.9-0.3,1.6-1.2,2.5-1.3l-0.1,0L5.3,51c0.1-0.1,0.4,0,0.3-0.2l1.5-0.9c0.2-0.1,0.5-0.1,0.5-0.3c0.9-0.3,1.7-0.9,2.6-1.2l0.1,0.1
			c-0.3,0.6,0,1.4-0.1,2.1c0.1,0.2,0.5,0.4,0.8,0.1c0.2,0,0,0.3,0.2,0.2l0.2,0c0.1,0,0.4-1,3.5-3c-0.1-0.4,0.4-0.5,0.6-0.8
			c0-0.1,0.1-0.3,0.2-0.3c0.1,0.1,0.2,0.2,0.4,0.1c0.3,0.5,0,1.2,0.2,1.7c0,0.3-0.2,0.5-0.1,0.9c0,0.3-0.5,0.6-0.2,0.8
			c0.6,0.6,0.4-0.7,0.9-0.4l0,0.3c0.1,0.2,0.1,0.4,0.4,0.3v-0.1c0,0,0-0.1,0.1-0.1V50c0.1-0.2,0.2-0.2,0.4-0.1c0.6-0.6,1-1.3,1.5-2
			c0.4-0.6,0.9-1,1.2-1.6c0.3,0.2,0.6-0.3,0.9-0.2c0,0.1,0,0.2-0.1,0.2h0.3c0.2,1,0.1,2.1,0.1,3.1c-0.1,0.3-0.2,0.7,0,0.9
			c0.5,0.2,0.4-0.4,0.7-0.6c0,0.3,0.2,0.1,0.1,0.3c0.7,0.6,0.2-0.7,0.7-0.6v0.2c0.1,0.1,0.1-1.1,1.4-3c0.5-0.4,0.6-1.1,1-1.6
			c0.5-0.2,1-0.2,1.6-0.1c-0.1,0-0.1,0.3,0,0.2c-0.1,0.9,0,1.8,0.2,2.6c0.1,1-0.5,1.9,0.1,2.8c0.1,0.3,0.3,0,0.5,0.1
			c0.2-0.2,0.3-0.1,0.4,0.2c0.3,0.1,0.2-0.2,0.3-0.2c0-0.3,0.1-0.7,0.2-0.9c-0.1-0.8,0.1-1.6,0.3-2.4c0-1.1,0.6-1.9,0.9-2.9
			c0.6-0.1,1.2-0.2,1.8-0.2L32,43.4c-0.8,0.1-1.8,0-2.7,0.2l0.1,0.3c-0.2,0.1-0.1,0.5-0.4,0.5v-2.2c0.3,0.1,0.3-0.3,0.5-0.4
			c0-1.1,0.1-2,0.2-3l0-0.1c0-0.7,0.1-1,0.2-1.4c0.5-0.2,0.4-0.8,0.5-1.1c0-0.5,0-0.6,0.1-0.8c0.3-0.7-0.5-1.9,0.6-2
			c0.6,0.5,0.2,1.5,0.3,2.2l-0.2,0.3c0.2,0.4,0,0.8,0,1.2l0.1,0.1c-0.1,0.6,0.6,0.7,0.6,1.3c0.1,0.2-0.1,0.3,0.1,0.5
			c-0.1,1.2-0.2,2.3-0.2,3.4c0.2-0.1,0.3,0.1,0.4,0.2c0.2,1.2-0.1,2.3,0.1,3.4c-0.1,0.2,0,0.3,0,0.5l0.1,0.3c0.2,0.5,0.2,1,0.1,1.6
			c0.2,0.5,0.1,1.1,0.2,1.6c0,0.1,0.1,0.3,0.2,0.3c0.5-0.4,0.3,0.5,0.8,0.3c0.2-0.1,0.2-0.3,0.2-0.4c0.6-0.8,0.5-2,0.9-3
			c0.3-0.6,0.3-1.4,0.8-1.9c-0.2-0.5,0.4-0.7,0.2-1.1c0.5-0.4,1.1,0,1.7-0.1c0.1,0.3,0,0.7-0.1,1c0.1,1.6,0.1,3.3,0,4.9
			c0.3,0.4,0.7,0,1-0.1c0.2,0.2,0.3,0.3,0.5,0.4c0.9-1.6,1-3.6,1.5-5.3c-0.1-0.1-0.2,0-0.1-0.1c-0.1,0-0.1,0.1-0.2,0.1L40,44.6
			c-0.2,0.3-0.2,0.7-0.3,1.1c-0.4,0.3,0,1-0.4,1.3c-0.1-1.4,0.2-2.7,0.2-4c0.5-0.6,0.3-1.5,0.2-2.3c0.5-0.8-0.1-2.1,0.4-2.9
			c0.2-0.7,0.7-1.3,0.7-2l-0.1-0.2c-0.1-1-0.3-1.7-0.3-2.6c0.4-0.1,0.8,0,1.2,0.1c0.2,1.1-0.1,2.4,0.4,3.4c-0.1,0.5-0.4,1.3,0.3,1.6
			c0.3,1-0.2,2.1,0.1,3.1c0.5,0.5,0.2,1.5,0.2,2.2c-0.3-0.1-0.6-0.1-0.8,0c-0.7-0.1-1.5-0.1-2.2,0c-0.3,0.2,0.1,0.5,0.1,0.7
			c1,0,1.9,0,2.9,0.1l0,1.5c0.1,0.2,0.3,0.3,0.5,0.2c0.2,0.8-0.1,1.6,0.1,2.4c0.1,0.5-0.2,1.2,0.4,1.3c0.2-0.3,0.4,0.2,0.6,0.1
			c0.1,0,0.1-0.2,0.2-0.1c0.1-0.1,0.2-0.2,0.2-0.4c0.7-1.4,0.8-2.8,1.7-4.1c0-0.1-0.2,0.1-0.2-0.1l-0.5,0.2l-0.1-0.7
			c0.3,0,0.4,0.2,0.7,0.2l0.1-0.2c0.7,0,1.3,0.1,1.9,0.3c0.2,0,0.4-0.1,0.6,0.1c0.1,1.6,0.3,3.2,0,4.8c0,0.1,0.1,0.3,0.2,0.2
			c0.4-0.5,0.9,0.1,1.3,0c0.1-0.2,0-0.6,0.3-0.7c0.5-1.3,1-2.5,1.6-3.8c0.3,0,0.7,0.1,1,0.2c1.1-0.2,0,1.1,0.5,1.5
			c1.1-0.1,0.3,1.2,0.6,1.8c0.2,0.4-0.3,1,0.2,1.2c0.3-0.4,0.7,0.2,1,0c0.9-0.8,1.2-2,1.8-2.9c0.3,0.1,0.8,0.2,1,0.3
			c0.3,0,0.6,0.3,1,0.4c0.5,0,0.6,0.2,1,0.2c2.3,0.6,4.4,1.9,6.5,2.9C67.2,51,66.9,50.7,66.7,50.5z M11.1,40.2
			c-0.3-0.6-0.3-1.2-0.4-1.9l0.3-0.1c-0.1,0.2,0,0.4,0.1,0.5V40.2z M11,36c-0.2,0.5-0.3,1.1,0,1.7c0,0.2-0.2,0.2-0.2,0.3
			c-0.4-0.8-0.4-1.8-0.6-2.7c0.1-0.7-0.4-1-0.3-1.7c0.3-0.1,0.9,0,1-0.1l1.6,0c0.1,0.2,0.2,0,0.4,0c-0.1,0.5,0,0.8-0.1,1.3
			c0,0.3-0.2,0.7-0.2,1.1c-0.1,0.2-0.1,0.4-0.2,0.6c0.1,0.5-0.3,0.8-0.6,1.1c0-0.2,0.1-0.3,0.2-0.4c0.1-0.1,0.1-1.3-0.5-1.3
			C11.3,36,11.1,35.9,11,36z M11.6,39.4l0-0.1c0-0.2-0.3-0.6-0.1-0.8c0-0.1-0.1-0.2-0.1-0.2l0,0c0,0,0,0,0,0
			c0.2-0.3,0.3,0.1,0.4,0.2l-0.2,0.8C11.6,39.4,11.6,39.4,11.6,39.4z M14.6,47.2l-2.9,2.1l0.1-0.3c0.2-0.1,0-0.3,0.1-0.5
			c0,0.1,0.1,0.1,0.1,0.1c0.1-0.1,0.1-0.2,0.1-0.3c0-0.2-0.4,0-0.2-0.3c0.2,0,0.1-0.2,0.2-0.3c0.3-0.2,0.6-0.2,1-0.2
			c0.5-0.2,1-0.3,1.5-0.4V47.2z M15.9,45.6c-0.5-0.2-0.8,0.3-1.2,0.4c-0.9,0.3-1.8,0.6-2.7,0.9c0-0.1,0-0.2,0-0.3
			c0-0.4-0.1-0.9-0.1-1.2h0.1l0.1-2c0.1-0.2,0.4,0,0.5-0.3c-0.5-1.1,0.3-2.4-0.2-3.5c0.2-1.5,0.8-2.9,0.9-4.4c0.3-0.4,0.1-1,0-1.4
			c0.1-0.2,0.2-0.2,0.4-0.3c0,0,0.2,0,0.2,0.1c0.1,0.1,0.1,0,0.2,0l0.2,0c0,0,0.3,0,0.3,0c0.2,0,0.1,0,0.4-0.1l0.2,0.1
			c0.3,1.4-0.4,2.7,0.2,4.1c0.3,1,0.5,2.4,0.6,3.3c-0.1,0.5,0,1.1,0.1,1.6c0.2,0,0.2,0.2,0.3,0.2C16.1,43.7,16.1,44.7,15.9,45.6z
			 M15.5,35.4l-0.2-0.2l0.1-1.6c0.9,0.2,2.3,0.2,3.2,0c0.2,0.3-0.3,0.7,0,0.9c-0.1,0.1-0.1,0.3,0,0.4c-0.1,1.1-0.6,2.1-1.2,3
			c-0.1,0.6-0.3,1.1-0.6,1.6c-0.1-0.4-0.4-0.8-0.4-1.4l-0.1-0.1l-0.1,0.1C15.8,37.4,15.6,36.4,15.5,35.4z M17,48.9
			c-0.2-0.5-0.1-1.4-0.1-2c0.1-0.1,0.3-0.1,0.4,0C17.3,47.5,17.6,48.5,17,48.9z M19.6,46.4c-0.6,0.7-1.3,1.2-1.9,1.7
			c-0.1-0.5,0.1-0.8,0.2-1.2l0,0.1c0.2-0.1,0.3-0.4,0.3-0.6c0.5-0.2,1,0.1,1.3-0.1h0.1V46.4z M21.4,44.7v0.2c-1-0.1-2.1,0.3-3.1,0.3
			c-0.1,0.1-0.1,0.3-0.2,0.2c-0.2-0.6-0.2-1.3-0.4-1.9c-0.2,1.1,0.2,2.3,0.1,3.1c-0.3-0.1-0.6,0-0.9,0l-0.3,0c0-0.1,0-0.1,0-0.2
			c-0.1,0-0.2,0-0.3,0c-0.1-1,0.1-1.9,0.2-2.8c-0.1-0.1,0-0.3-0.1-0.5c0-0.3,0.2-0.4,0.4-0.5c0.1,0,0-0.1,0.1-0.1
			c0.2,0,0.3,0.2,0.5,0.2c0.1,0.1,0.2,0.1,0.2,0.2l0.2-0.3c0,0.1,0.1,0,0.1,0c0.2-0.2,0-0.6,0-0.8c-0.1-1-0.1-2.2,0.2-3.2l0.3-0.4
			c0.2-0.9,0.4-1.8,0.6-2.6l-0.1-0.1l0.2-1.7l0.2-0.1c0.5,0.2,1.4-0.3,1.3,0.5c0,0.7,0.1,1.6,0.1,2.3c-0.7,0.5,0,1.2,0,1.8
			c0.3,0.7,0.9,1.3,0.6,2c-0.2,1-0.5,3-0.2,3C21.7,43.2,21.3,44.2,21.4,44.7z M22.3,48.6h-0.1l0.2-2.3c0.1,0,0.1-0.1,0.2,0
			C22.3,47,22.6,47.8,22.3,48.6z M22.7,37.4c0.5-0.2,0.2-0.8,0.4-1.1c-0.1-0.3-0.2-1-0.7-1c-0.1,0.1-0.3,0.1-0.4,0.2
			c-0.1,0.4-0.4,0.8-0.2,1.2c0.2,0.2,0.4,0.5,0.2,0.8c0,0.1-0.2,0.1-0.1,0.2C21.2,37,21.1,36,21.2,35c-0.2-0.5-0.1-1,0-1.5
			c0.7,0.1,1.3-0.2,2-0.2c0.4,0,0.6,0,0.7,0.3c-0.4,1.4,0.1,2.9-0.7,4.2C23,37.6,22.7,37.7,22.7,37.4z M26.7,43.8
			c-1,0.1-2.1-0.2-2.9,0.5c-0.1,0.1-0.4,0.1-0.4,0.3l0.2,0.1c0,0.2-0.1,0.2-0.2,0.4c0.1,0.1,0.1,0.4,0.3,0.5
			c0.2-0.4,0.5-0.5,0.9-0.5v0.3L23,47.7c-0.2-0.5,0.2-1,0.1-1.5c0.1-0.1,0.2,0,0.4,0c-0.3-0.9-0.2-2.3-0.2-3.2
			c0.1-0.1,0.3-0.1,0.3-0.3c0.1-1.2-0.4-2.7,0.3-3.7c0.1-0.8,0.7-1.5,0.3-2.3h0c-0.1-0.8-0.1-1.9,0.2-2.7c-0.1-0.2-0.1-0.4-0.1-0.6
			c0.3-0.1,0.8-0.3,1,0l0.6-0.1c0.2,0.3-0.4,0.5,0,0.8c-0.1,1-0.5,2.5,0.3,3.2c0,0.3,0,0.6,0.3,0.7c-0.1,1.2,0.1,2.6,0,3.9
			c0,0.5,0.7,0.4,0.5,0.9l0,0.1C27,43.1,27.4,43.7,26.7,43.8z M29.7,44.6l-0.7,1.6c-0.1-0.6,0.3-1,0.1-1.6
			C29.2,44.6,29.4,44.5,29.7,44.6z M29.5,36.2c-0.1,0.4-0.4,0.7-0.8,0.8c0,0-0.3,2.1-0.3,2.3c0,0-0.1,0.3-0.2,0.2
			c0.3-0.8-0.2-1.6-0.1-2.4c0.1,0,0.1,0,0.1-0.1c0.1-0.2-0.2-0.1-0.2-0.3c-0.1,0.1-0.3,0-0.3,0.2c0.1,0.2,0.2,0.4,0.1,0.7V39
			c-0.3-0.7-0.4-1.2-0.5-2c0-0.2,0.2-0.3,0-0.5c-0.6-0.1-0.6-0.8-0.8-1.2c0.1-0.7-0.4-1.4-0.1-2.1c1.2-0.2,2.3,0.2,3.5,0.1
			C30,34.3,29.5,35.2,29.5,36.2z M33.5,48.7h-0.1c0-0.5-0.2-1.2,0.1-1.7c0-0.3,0-0.6,0.4-0.5C34,47.3,33.7,48.1,33.5,48.7z
			 M34.6,36.3l0,0.1c-0.1,1-1.1,1.5-0.8,2.7c0,0,0,0.1,0,0.1L33.5,41c0.1-0.9-0.3-1.8-0.1-2.7c-0.5-0.3-0.5-1.1-0.6-1.6
			c-0.1-0.1-0.2,0-0.3-0.1l0,0.1c-0.4-0.3-0.1-1.2-0.5-1.6c0-0.4,0-1-0.2-1.4c0.1-0.4,0.7-0.1,1-0.3h0.4l0.2,0c0.5,0.1,1,0,1.6,0.1
			c0.2,0.8,0.1,1.9-0.2,2.6L34.6,36.3z M35.1,44.3L34.8,45c0.1-0.4-0.2-1,0.5-0.9C35.4,44.4,35.1,44.3,35.1,44.3z M37.4,43.1
			c-0.1,0-0.2,0-0.3,0.1c-0.7,0-1.7-0.3-2.4,0.1c0.2-0.4-0.4-1.4,0.5-1.1l0.1-0.1c0-0.7-0.1-1.5-0.2-2.1l0-0.3c0-1-0.2-2,0.2-3.1
			c0.4-0.9,0.8-2.2,0.1-3.1c0.1-0.3,0.6-0.1,0.9-0.2l0.1,0.4c0.1,1.8-0.4,3.7,0.9,5.1c0.2,1.3-0.3,2.7-0.1,4.1
			C37.2,43,37.5,42.9,37.4,43.1z M39.4,37.2c-0.1,0.6-0.2,1.3-0.2,2c-0.1,0.3-0.1,0.7-0.2,0.9l0.1-3c0.6-0.4,0.2-1.3,0.4-1.9
			c-0.2-0.2-0.3-0.5-0.6-0.5c-0.3,0-0.5,0.1-0.7,0.2c-0.3,0.3-0.2,0.8-0.1,1.2c0,0.4,0.6,0.5,0.3,1c0.1,0.1,0.2,0.1,0.3,0.1h-0.1
			c-0.2,0.5,0,1.1-0.1,1.7c-0.3-0.4-0.2-1-0.5-1.3c0.2-0.6-0.4-1-0.7-1.5c-0.1-0.8-0.1-1.6-0.3-2.4l0-0.4c0.6-0.2,1.4,0.1,2-0.2
			c0.3,0.2,0.9-0.2,0.8,0.3C40,34.7,40.1,36.1,39.4,37.2z M44.7,36.2C44.6,36.2,44.6,36.1,44.7,36.2c-0.2-0.3,0.2-0.4,0-0.6
			c0.3-0.2,0.3-0.6,0.2-0.9c-0.2-0.3-0.5-0.3-0.7-0.4c-0.5,0-0.9,0.3-1,0.7c0,0.3,0.2,0.7,0.3,0.9h-0.1c-0.1,0.2,0.2,0.3,0.1,0.5
			C43.3,36.7,43,36.2,43,36c-0.2-1.1-0.3-1.9-0.4-2.9c0.9,0.1,1.7,0.1,2.6-0.1l0.1,0.4l0.1,2.3C45.2,36.1,44.9,35.8,44.7,36.2z
			 M50.1,39c0-0.8-0.1-1.6,0-2.4l-0.2,0c0.2-0.1,0.3,0.1,0.4,0.2c0.1-0.1,0.2,0.1,0.3,0.1L50.1,39z M50.8,46.6v-1.3l0.6,0
			C51.4,45.9,51,46.2,50.8,46.6z M54.1,46.9c0.3-1.3,0.3-2.6,0.2-4c0.1-0.2,0-0.5,0.1-0.6c0.5,0.2,1.2,0.2,1.8,0.1l0.1,0.1
			c-0.1,1.4-0.2,2.8,0.1,4.1c-0.1,0.1,0,0.2,0,0.3C55.7,47.3,54.7,47.1,54.1,46.9z M56.2,47.9c-0.1,0.1-0.3,0.1-0.4,0.2
			c0,0,0,0,0,0.1c0,0,0,0,0-0.1c0.1-0.3-0.2-0.6,0.5-0.7C56.6,47,56.4,47.8,56.2,47.9z"/>
	</g>
	<g>
		<path fill="#FFFFFF" d="M67.2,46.6c0.7,0,1.3,0.5,1.3,1.3c0,0.7-0.6,1.3-1.3,1.3c-0.7,0-1.3-0.5-1.3-1.3
			C66,47.1,66.6,46.6,67.2,46.6z M67.2,48.9c0.6,0,1-0.5,1-1.1c0-0.6-0.5-1.1-1-1.1c-0.6,0-1,0.5-1,1.1
			C66.2,48.5,66.7,48.9,67.2,48.9z M66.8,47.1h0.6c0.4,0,0.5,0.1,0.5,0.4c0,0.3-0.2,0.4-0.4,0.4l0.4,0.7h-0.2L67.2,48H67v0.6h-0.2
			V47.1z M67,47.8h0.2c0.2,0,0.4,0,0.4-0.2c0-0.2-0.2-0.2-0.3-0.2H67V47.8z"/>
	</g>
</g>
<path fill="#FFFFFF" d="M142.5,43.2l-5.3-7.9l7.5-9.8h-6v0.1c2.2,0.3,1.1,2,0.3,3.2l-3.3,4.4l-4.8-6.9c-0.3-0.5-0.6-0.8-1.6-0.8
	h-3.8c1.4,0.6,2.3,1.9,3.2,3.2l4.8,6.9L126,45c-0.4-0.8-0.8-1.7-1.1-2.6L118,25.6h-5.2v0.1c1.6,0.5,1,1.9,0.5,3.1l-5.5,13.8
	c-0.5,1.3-1,2.7-1.9,3.6c-0.4-0.6-0.5-1.3-0.6-2.3l-2.2-16.2c0-0.8,0.2-1.7,1-1.9v-0.1h-5.7v0c0,0.7-0.2,1.3-0.5,2l-5.5,14
	l-6.2-14.6c-0.2-0.5-0.5-1-0.5-1.5v0H80v0.1c1.5,0.8,1.2,2.1,1,3.1l-1.9,13.8c-0.3,1.8-0.5,3.4-1.8,4.6v0.1h5.4v-0.1
	c-1.6-0.7-1.3-2.1-1.1-4.2l1.9-14.2l6.3,14.9c0.8,1.9,1.3,2.7,2.9,4l7.4-18.9l1.9,15.9c0,1.1-0.2,2.1-1.4,2.5v0.1h4h2.4h3.7v-0.1
	c-1.6-0.6-1.4-1.6-0.7-3.4l1.7-4.7h8.3l1.8,4.7c0.9,2.3,1.2,2.7-0.5,3.4v0.1h3h3.8h2.6v-0.1c-2-0.8-1-2.2-0.2-3.3l4.6-6.1l5.5,8.3
	c0.2,0.3,0.8,1.2,2.1,1.2h3.8C144.6,46.6,143.6,44.8,142.5,43.2z M112.5,36.7l3.3-8.3l3.2,8.3H112.5z"/>
</svg>
