<?xml version="1.0" encoding="utf-8"?>
<!-- Generator: Adobe Illustrator 16.2.1, SVG Export Plug-In . SVG Version: 6.00 Build 0)  -->
<!DOCTYPE svg PUBLIC "-//W3C//DTD SVG 1.1//EN" "http://www.w3.org/Graphics/SVG/1.1/DTD/svg11.dtd">
<svg version="1.1" id="Layer_1" xmlns="http://www.w3.org/2000/svg" xmlns:xlink="http://www.w3.org/1999/xlink" x="0px" y="0px"
	 width="10px" height="10px" viewBox="0 0 10 10" enable-background="new 0 0 10 10" xml:space="preserve">
<g>
	<linearGradient id="SVGID_1_" gradientUnits="userSpaceOnUse" x1="4.5581" y1="-0.7915" x2="9.105" y2="5.0054">
		<stop  offset="0" style="stop-color:#7565B7"/>
		<stop  offset="1" style="stop-color:#312466"/>
	</linearGradient>
	<path fill="url(#SVGID_1_)" stroke="#4A3291" stroke-width="0.2" stroke-miterlimit="10" d="M8.326,1.52H3.358
		c-0.372,0-0.674-0.302-0.674-0.674s0.302-0.674,0.674-0.674h4.968C8.698,0.172,9,0.474,9,0.846S8.698,1.52,8.326,1.52z"/>
	<linearGradient id="SVGID_2_" gradientUnits="userSpaceOnUse" x1="3.4941" y1="0.043" x2="8.04" y2="5.8386">
		<stop  offset="0" style="stop-color:#7565B7"/>
		<stop  offset="1" style="stop-color:#312466"/>
	</linearGradient>
	<path fill="url(#SVGID_2_)" stroke="#4A3291" stroke-width="0.2" stroke-miterlimit="10" d="M8.326,3.71H3.358
		c-0.372,0-0.674-0.301-0.674-0.673s0.302-0.674,0.674-0.674h4.968C8.698,2.363,9,2.665,9,3.037S8.698,3.71,8.326,3.71z"/>
	<linearGradient id="SVGID_3_" gradientUnits="userSpaceOnUse" x1="2.3726" y1="0.9224" x2="6.9194" y2="6.7192">
		<stop  offset="0" style="stop-color:#7565B7"/>
		<stop  offset="1" style="stop-color:#312466"/>
	</linearGradient>
	<path fill="url(#SVGID_3_)" stroke="#4A3291" stroke-width="0.2" stroke-miterlimit="10" d="M8.326,6.02H3.358
		c-0.372,0-0.674-0.302-0.674-0.674s0.302-0.674,0.674-0.674h4.968C8.698,4.672,9,4.974,9,5.346S8.698,6.02,8.326,6.02z"/>
</g>
</svg>
