<svg xmlns="http://www.w3.org/2000/svg" width="10" height="10" viewBox="0 0 10 10"><linearGradient id="a" gradientUnits="userSpaceOnUse" x1="4.558" y1="-.791" x2="9.105" y2="5.005"><stop offset="0" stop-color="#7565B7"/><stop offset="1" stop-color="#312466"/></linearGradient><path fill="url(#a)" stroke="#4A3291" stroke-width=".2" stroke-miterlimit="10" d="M8.326 1.52H3.358c-.372 0-.674-.302-.674-.674s.302-.674.674-.674h4.968c.372 0 .674.302.674.674s-.302.674-.674.674z"/><linearGradient id="b" gradientUnits="userSpaceOnUse" x1="3.494" y1=".043" x2="8.04" y2="5.839"><stop offset="0" stop-color="#7565B7"/><stop offset="1" stop-color="#312466"/></linearGradient><path fill="url(#b)" stroke="#4A3291" stroke-width=".2" stroke-miterlimit="10" d="M8.326 3.71H3.358c-.372 0-.674-.3-.674-.673s.302-.674.674-.674h4.968c.372 0 .674.302.674.674s-.302.673-.674.673z"/><linearGradient id="c" gradientUnits="userSpaceOnUse" x1="2.373" y1=".922" x2="6.919" y2="6.719"><stop offset="0" stop-color="#7565B7"/><stop offset="1" stop-color="#312466"/></linearGradient><path fill="url(#c)" stroke="#4A3291" stroke-width=".2" stroke-miterlimit="10" d="M8.326 6.02H3.358c-.372 0-.674-.302-.674-.674s.302-.674.674-.674h4.968c.372 0 .674.302.674.674s-.302.674-.674.674z"/></svg>